<svg width="99" height="41" viewBox="0 0 99 41" fill="none" xmlns="http://www.w3.org/2000/svg">
<path d="M8.31535 31.2669C4.79442 30.044 2.79922 28.1351 1.5669 24.7946C0.657322 22.3488 0.862709 18.6801 2.03635 16.5028C3.56209 13.6395 6.26147 12.178 9.95845 12.178C14.1249 12.178 17.4991 13.9079 22.135 18.4117C23.6901 19.9627 25.0691 21.1259 25.1865 21.0066C25.2745 20.9171 25.3625 20.0223 25.3625 19.0679C25.3625 17.4871 25.2745 17.2186 24.3062 16.1449C23.2793 15.0115 22.3697 14.5939 19.3183 13.8184L19.301 13.8143C18.4377 13.6096 18.4114 13.6034 18.8195 12.6552C19.2009 11.6709 19.2009 11.6709 24.5997 11.6709H29.9984L30.82 9.22514C31.5242 7.01797 31.8176 6.54075 33.5487 4.78099C36.0427 2.24573 39.1528 0.605274 40.6199 1.0825C41.1774 1.26146 41.148 1.47024 40.3558 4.45289C40.0918 5.40734 39.857 5.70561 39.4169 5.70561C38.8594 5.70561 38.8301 5.5863 38.9768 4.69151C39.2409 3.25983 38.4193 3.02122 36.5708 3.97567C34.9277 4.78099 34.0768 6.00387 33.2846 8.65843C33.098 9.27918 32.9016 9.91987 32.7521 10.4076C32.643 10.7635 32.5589 11.038 32.5217 11.1639C32.375 11.6113 32.6391 11.6709 35.3092 11.6709C36.9523 11.6709 38.2726 11.7604 38.2433 11.9095C38.2433 12.0288 37.9499 12.9833 37.5684 14.057C37.1576 15.3396 36.7469 16.0256 36.3948 16.0852C35.9547 16.1747 35.896 16.0256 35.984 15.1904C36.072 14.2062 36.072 14.2062 33.8421 14.1167C32.6631 14.0687 32.1157 14.0465 31.7804 14.3022C31.4899 14.5238 31.3586 14.9541 31.1134 15.7571C27.6218 27.3298 17.235 34.3689 8.31535 31.2669ZM18.4087 29.2387C20.4039 28.5527 23.514 26.4649 24.2769 25.3016C24.7461 24.5563 24.717 24.5262 21.9045 21.6076L21.9003 21.6031C18.7021 18.2924 16.1201 16.3238 13.1566 14.8922C11.3962 14.0272 10.8387 13.9079 8.72612 13.9079C6.55488 13.9079 6.23213 13.9974 5.05849 14.8027C1.59624 17.3081 1.39085 22.5576 4.67705 26.2561C6.90697 28.7317 9.66504 29.8352 13.8608 29.8352C15.8853 29.8651 17.059 29.7159 18.4087 29.2387ZM28.7367 16.6221C29.1475 15.3396 29.4116 14.1763 29.2942 14.0869C29.1475 13.9079 24.4823 13.8184 24.4823 13.9675C24.4823 14.0257 24.9285 14.6225 25.4675 15.3434L25.5092 15.3992C26.0667 16.1449 26.5948 17.2186 26.7122 17.8152C26.8883 18.7696 26.6242 20.768 26.1254 22.2593C26.008 22.5874 26.3895 21.9909 26.9469 20.9171C27.5338 19.8434 28.326 17.9046 28.7367 16.6221Z" fill="white"/>
<path d="M8.31535 31.2669C4.79442 30.044 2.79922 28.1351 1.5669 24.7946C0.657322 22.3488 0.862709 18.6801 2.03635 16.5028C3.56209 13.6395 6.26147 12.178 9.95845 12.178C14.1249 12.178 17.4991 13.9079 22.135 18.4117C23.6901 19.9627 25.0691 21.1259 25.1865 21.0066C25.2745 20.9171 25.3625 20.0223 25.3625 19.0679C25.3625 17.4871 25.2745 17.2186 24.3062 16.1449C23.2793 15.0115 22.3697 14.5939 19.3183 13.8184L19.301 13.8143C18.4377 13.6096 18.4114 13.6034 18.8195 12.6552C19.2009 11.6709 19.2009 11.6709 24.5997 11.6709H29.9984L30.82 9.22514C31.5242 7.01797 31.8176 6.54075 33.5487 4.78099C36.0427 2.24573 39.1528 0.605274 40.6199 1.0825C41.1774 1.26146 41.148 1.47024 40.3558 4.45289C40.0918 5.40734 39.857 5.70561 39.4169 5.70561C38.8594 5.70561 38.8301 5.5863 38.9768 4.69151C39.2409 3.25983 38.4193 3.02122 36.5708 3.97567C34.9277 4.78099 34.0768 6.00387 33.2846 8.65843C33.098 9.27918 32.9016 9.91987 32.7521 10.4076C32.643 10.7635 32.5589 11.038 32.5217 11.1639C32.375 11.6113 32.6391 11.6709 35.3092 11.6709C36.9523 11.6709 38.2726 11.7604 38.2433 11.9095C38.2433 12.0288 37.9499 12.9833 37.5684 14.057C37.1576 15.3396 36.7469 16.0256 36.3948 16.0852C35.9547 16.1747 35.896 16.0256 35.984 15.1904C36.072 14.2062 36.072 14.2062 33.8421 14.1167C32.6631 14.0687 32.1157 14.0465 31.7804 14.3022C31.4899 14.5238 31.3586 14.9541 31.1134 15.7571C27.6218 27.3298 17.235 34.3689 8.31535 31.2669ZM18.4087 29.2387C20.4039 28.5527 23.514 26.4649 24.2769 25.3016C24.7461 24.5563 24.717 24.5262 21.9045 21.6076L21.9003 21.6031C18.7021 18.2924 16.1201 16.3238 13.1566 14.8922C11.3962 14.0272 10.8387 13.9079 8.72612 13.9079C6.55488 13.9079 6.23213 13.9974 5.05849 14.8027C1.59624 17.3081 1.39085 22.5576 4.67705 26.2561C6.90697 28.7317 9.66504 29.8352 13.8608 29.8352C15.8853 29.8651 17.059 29.7159 18.4087 29.2387ZM28.7367 16.6221C29.1475 15.3396 29.4116 14.1763 29.2942 14.0869C29.1475 13.9079 24.4823 13.8184 24.4823 13.9675C24.4823 14.0257 24.9285 14.6225 25.4675 15.3434L25.5092 15.3992C26.0667 16.1449 26.5948 17.2186 26.7122 17.8152C26.8883 18.7696 26.6242 20.768 26.1254 22.2593C26.008 22.5874 26.3895 21.9909 26.9469 20.9171C27.5338 19.8434 28.326 17.9046 28.7367 16.6221Z" stroke="white"/>
<path d="M40.92 24.36C40.76 24.4133 40.68 24.3467 40.68 24.16C40.8667 23.6 40.8267 23.1067 40.56 22.68C40.32 22.2533 39.8667 22.04 39.2 22.04C38.3467 22.04 37.6533 22.5733 37.12 23.64C36.6133 24.7067 36.36 26.0933 36.36 27.8C36.36 29.0533 36.8533 29.68 37.84 29.68C38.2933 29.68 38.7867 29.52 39.32 29.2C39.88 28.8533 40.3867 28.4133 40.84 27.88C40.9467 27.8267 41.04 27.84 41.12 27.92C41.2 28 41.2133 28.0933 41.16 28.2C40.4933 29.0533 39.7467 29.7333 38.92 30.24C38.0933 30.7467 37.2133 31 36.28 31C35.6933 31 35.2 30.8 34.8 30.4C34.4 29.9733 34.2 29.3867 34.2 28.64C34.2 27.7067 34.3867 26.7733 34.76 25.84C35.16 24.88 35.6667 24.0267 36.28 23.28C36.8933 22.5333 37.56 21.9333 38.28 21.48C39 21 39.7067 20.76 40.4 20.76C41.0133 20.76 41.4933 20.9333 41.84 21.28C42.1867 21.6267 42.36 22.0133 42.36 22.44C42.36 22.6 42.3067 22.7733 42.2 22.96C42.12 23.1467 42 23.3333 41.84 23.52C41.7067 23.7067 41.5467 23.88 41.36 24.04C41.2 24.2 41.0533 24.3067 40.92 24.36ZM63.2606 1.28C63.6606 1.28 63.9806 1.38667 64.2206 1.6C64.4873 1.78667 64.6606 2.05333 64.7406 2.4C64.8473 2.72 64.8606 3.09333 64.7806 3.52C64.7273 3.94667 64.5806 4.37333 64.3406 4.8C64.2873 4.85333 64.2206 4.85333 64.1406 4.8C64.0606 4.74667 64.0073 4.68 63.9806 4.6C64.034 4.28 63.914 4.01333 63.6206 3.8C63.354 3.58667 62.9273 3.48 62.3406 3.48C61.2473 3.48 60.1406 3.89333 59.0206 4.72C57.9273 5.52 56.8606 6.58667 55.8206 7.92C54.7806 9.25333 53.8073 10.7867 52.9006 12.52C51.994 14.2533 51.2073 16.04 50.5406 17.88C49.874 19.72 49.3406 21.5467 48.9406 23.36C48.5673 25.1733 48.3806 26.8267 48.3806 28.32C48.3806 29.12 48.6073 29.52 49.0606 29.52C49.3806 29.52 49.6873 29.3867 49.9806 29.12C50.3006 28.8533 50.6606 28.4533 51.0606 27.92C51.1406 27.8667 51.2073 27.88 51.2606 27.96C51.3406 28.0133 51.3673 28.0933 51.3406 28.2C50.8073 29 50.1806 29.6667 49.4606 30.2C48.7406 30.7333 48.0873 31 47.5006 31C46.994 31 46.634 30.8533 46.4206 30.56C46.234 30.2667 46.1406 29.8933 46.1406 29.44C46.1406 28.1867 46.4073 26.6267 46.9406 24.76C47.474 22.8667 48.1806 20.88 49.0606 18.8C49.9673 16.6933 51.0073 14.6 52.1806 12.52C53.354 10.44 54.5673 8.57333 55.8206 6.92C57.1006 5.24 58.3806 3.88 59.6606 2.84C60.9406 1.8 62.1406 1.28 63.2606 1.28ZM60.1163 19.04C60.0363 19.12 59.9429 19.12 59.8363 19.04C59.7563 18.96 59.6896 18.8533 59.6363 18.72C59.5829 18.56 59.5563 18.4 59.5563 18.24C59.5563 18.0533 59.5963 17.8933 59.6763 17.76C59.9696 17.3867 60.3963 16.92 60.9563 16.36C61.5429 15.7733 62.1429 15.28 62.7563 14.88C62.8096 14.8533 62.8763 14.88 62.9563 14.96C63.0363 15.0133 63.0629 15.0667 63.0363 15.12C62.4763 15.6267 61.9429 16.24 61.4363 16.96C60.9296 17.6533 60.4896 18.3467 60.1163 19.04ZM55.8363 23.56C55.7563 23.6133 55.6896 23.6 55.6363 23.52C55.5829 23.4133 55.5696 23.32 55.5963 23.24C56.5829 22.44 57.9563 21.6133 59.7163 20.76C59.9296 20.76 60.0363 20.88 60.0363 21.12C59.6896 21.7333 59.3429 22.4 58.9963 23.12C58.6763 23.84 58.3829 24.56 58.1163 25.28C57.8763 25.9733 57.6763 26.6533 57.5163 27.32C57.3563 27.96 57.2763 28.4933 57.2763 28.92C57.2763 29.4533 57.4629 29.72 57.8363 29.72C58.1296 29.72 58.4096 29.6 58.6763 29.36C58.9696 29.0933 59.3029 28.76 59.6763 28.36C59.7296 28.3067 59.7963 28.32 59.8763 28.4C59.9563 28.4533 59.9696 28.5467 59.9163 28.68C59.3296 29.3733 58.7429 29.9333 58.1563 30.36C57.5963 30.7867 57.0496 31 56.5163 31C55.5829 31 55.1163 30.56 55.1163 29.68C55.1163 29.2 55.1829 28.64 55.3163 28C55.4763 27.3333 55.6763 26.6667 55.9163 26C56.1829 25.3067 56.4629 24.64 56.7563 24C57.0763 23.3333 57.3963 22.76 57.7163 22.28C57.4229 22.44 57.0896 22.64 56.7163 22.88C56.3696 23.12 56.0763 23.3467 55.8363 23.56ZM75.7569 28.2C75.8102 28.1467 75.8769 28.16 75.9569 28.24C76.0369 28.2933 76.0635 28.3733 76.0369 28.48C75.5569 29.1467 74.9969 29.7333 74.3569 30.24C73.7435 30.7467 73.1302 31 72.5169 31C72.0635 31 71.7035 30.8533 71.4369 30.56C71.1969 30.2667 71.0769 29.88 71.0769 29.4C71.0769 28.4667 71.2369 27.4533 71.5569 26.36C71.9035 25.2667 72.3569 24.16 72.9169 23.04C72.9969 22.8533 73.0369 22.6533 73.0369 22.44C73.0369 22.1733 72.9169 22.04 72.6769 22.04C71.6902 22.04 70.5969 22.72 69.3969 24.08C68.1969 25.4133 67.0902 27.5467 66.0769 30.48C66.0502 30.56 65.9569 30.64 65.7969 30.72C65.6635 30.7733 65.5035 30.8267 65.3169 30.88C65.1302 30.9067 64.9435 30.9333 64.7569 30.96C64.5702 30.9867 64.4235 31 64.3169 31C64.1835 31 64.0769 30.9733 63.9969 30.92C63.9435 30.8667 63.9435 30.7733 63.9969 30.64C64.4502 29.4933 64.9035 28.24 65.3569 26.88C65.8369 25.4933 66.2502 24.1067 66.5969 22.72C66.6769 22.4533 66.6902 22.2667 66.6369 22.16C66.5835 22.0267 66.4902 21.96 66.3569 21.96C66.0635 21.96 65.7835 22.0933 65.5169 22.36C65.2502 22.6 65.0102 22.8667 64.7969 23.16C64.7169 23.2133 64.6369 23.2 64.5569 23.12C64.5035 23.04 64.4902 22.96 64.5169 22.88C64.6502 22.6933 64.8235 22.48 65.0369 22.24C65.2769 22 65.5435 21.7733 65.8369 21.56C66.1302 21.32 66.4369 21.1333 66.7569 21C67.0769 20.84 67.3969 20.76 67.7169 20.76C68.1702 20.76 68.4635 20.9067 68.5969 21.2C68.7569 21.4667 68.7969 21.8 68.7169 22.2C68.5835 22.7867 68.4369 23.3467 68.2769 23.88C68.1435 24.3867 67.9702 24.96 67.7569 25.6C68.0769 25.0133 68.4635 24.44 68.9169 23.88C69.3969 23.2933 69.9169 22.7733 70.4769 22.32C71.0635 21.84 71.6902 21.4667 72.3569 21.2C73.0235 20.9067 73.7302 20.76 74.4769 20.76C74.7969 20.76 75.0369 20.84 75.1969 21C75.3835 21.16 75.4769 21.3467 75.4769 21.56C75.4769 21.9333 75.3835 22.2667 75.1969 22.56C74.6369 23.5733 74.1569 24.6267 73.7569 25.72C73.3835 26.7867 73.1969 27.7467 73.1969 28.6C73.1969 29.2933 73.4235 29.64 73.8769 29.64C74.1702 29.64 74.4635 29.52 74.7569 29.28C75.0502 29.04 75.3835 28.68 75.7569 28.2ZM85.2475 19.04C85.1675 19.12 85.0742 19.12 84.9675 19.04C84.8875 18.96 84.8208 18.8533 84.7675 18.72C84.7142 18.56 84.6875 18.4 84.6875 18.24C84.6875 18.0533 84.7275 17.8933 84.8075 17.76C85.1008 17.3867 85.5275 16.92 86.0875 16.36C86.6742 15.7733 87.2742 15.28 87.8875 14.88C87.9408 14.8533 88.0075 14.88 88.0875 14.96C88.1675 15.0133 88.1942 15.0667 88.1675 15.12C87.6075 15.6267 87.0742 16.24 86.5675 16.96C86.0608 17.6533 85.6208 18.3467 85.2475 19.04ZM80.9675 23.56C80.8875 23.6133 80.8208 23.6 80.7675 23.52C80.7142 23.4133 80.7008 23.32 80.7275 23.24C81.7142 22.44 83.0875 21.6133 84.8475 20.76C85.0608 20.76 85.1675 20.88 85.1675 21.12C84.8208 21.7333 84.4742 22.4 84.1275 23.12C83.8075 23.84 83.5142 24.56 83.2475 25.28C83.0075 25.9733 82.8075 26.6533 82.6475 27.32C82.4875 27.96 82.4075 28.4933 82.4075 28.92C82.4075 29.4533 82.5942 29.72 82.9675 29.72C83.2608 29.72 83.5408 29.6 83.8075 29.36C84.1008 29.0933 84.4342 28.76 84.8075 28.36C84.8608 28.3067 84.9275 28.32 85.0075 28.4C85.0875 28.4533 85.1008 28.5467 85.0475 28.68C84.4608 29.3733 83.8742 29.9333 83.2875 30.36C82.7275 30.7867 82.1808 31 81.6475 31C80.7142 31 80.2475 30.56 80.2475 29.68C80.2475 29.2 80.3142 28.64 80.4475 28C80.6075 27.3333 80.8075 26.6667 81.0475 26C81.3142 25.3067 81.5942 24.64 81.8875 24C82.2075 23.3333 82.5275 22.76 82.8475 22.28C82.5542 22.44 82.2208 22.64 81.8475 22.88C81.5008 23.12 81.2075 23.3467 80.9675 23.56ZM96.2481 24.36C96.0881 24.4133 96.0081 24.3467 96.0081 24.16C96.1948 23.6 96.1548 23.1067 95.8881 22.68C95.6481 22.2533 95.1948 22.04 94.5281 22.04C93.6748 22.04 92.9815 22.5733 92.4481 23.64C91.9415 24.7067 91.6881 26.0933 91.6881 27.8C91.6881 29.0533 92.1815 29.68 93.1681 29.68C93.6215 29.68 94.1148 29.52 94.6481 29.2C95.2081 28.8533 95.7148 28.4133 96.1681 27.88C96.2748 27.8267 96.3681 27.84 96.4481 27.92C96.5281 28 96.5415 28.0933 96.4881 28.2C95.8215 29.0533 95.0748 29.7333 94.2481 30.24C93.4215 30.7467 92.5415 31 91.6081 31C91.0215 31 90.5281 30.8 90.1281 30.4C89.7281 29.9733 89.5281 29.3867 89.5281 28.64C89.5281 27.7067 89.7148 26.7733 90.0881 25.84C90.4881 24.88 90.9948 24.0267 91.6081 23.28C92.2215 22.5333 92.8881 21.9333 93.6081 21.48C94.3281 21 95.0348 20.76 95.7281 20.76C96.3415 20.76 96.8215 20.9333 97.1681 21.28C97.5148 21.6267 97.6881 22.0133 97.6881 22.44C97.6881 22.6 97.6348 22.7733 97.5281 22.96C97.4481 23.1467 97.3281 23.3333 97.1681 23.52C97.0348 23.7067 96.8748 23.88 96.6881 24.04C96.5281 24.2 96.3815 24.3067 96.2481 24.36Z" fill="white"/>
<path d="M40.92 24.36L41.0781 24.8343L41.0921 24.8297L41.1057 24.8242L40.92 24.36ZM40.68 24.16L40.2057 24.0019L40.18 24.0789V24.16H40.68ZM40.56 22.68L40.1242 22.9251L40.1299 22.9352L40.136 22.945L40.56 22.68ZM37.12 23.64L36.6727 23.4163L36.6684 23.4255L37.12 23.64ZM39.32 29.2L39.5773 29.6288L39.5832 29.6251L39.32 29.2ZM40.84 27.88L40.6164 27.4328L40.5251 27.4784L40.459 27.5562L40.84 27.88ZM41.12 27.92L41.4736 27.5664L41.4736 27.5664L41.12 27.92ZM41.16 28.2L41.554 28.5078L41.5848 28.4684L41.6072 28.4236L41.16 28.2ZM38.92 30.24L38.6587 29.8137L38.6587 29.8137L38.92 30.24ZM34.8 30.4L34.4352 30.742L34.4407 30.7479L34.4464 30.7536L34.8 30.4ZM34.76 25.84L34.2984 25.6477L34.2958 25.6543L34.76 25.84ZM36.28 23.28L36.6664 23.5974L36.6664 23.5974L36.28 23.28ZM38.28 21.48L38.5465 21.9033L38.5574 21.896L38.28 21.48ZM41.84 21.28L42.1936 20.9264L42.1936 20.9264L41.84 21.28ZM42.2 22.96L41.7659 22.7119L41.7517 22.7368L41.7404 22.763L42.2 22.96ZM41.84 23.52L41.4604 23.1946L41.446 23.2114L41.4331 23.2294L41.84 23.52ZM41.36 24.04L41.0346 23.6604L41.02 23.6729L41.0064 23.6864L41.36 24.04ZM40.7619 23.8857C40.7622 23.8856 40.769 23.8833 40.7816 23.8812C40.794 23.8791 40.8151 23.8767 40.8427 23.8783C40.9028 23.8816 40.9852 23.9035 41.0601 23.9659C41.1314 24.0253 41.1608 24.0923 41.1718 24.1269C41.182 24.1593 41.18 24.1746 41.18 24.16H40.18C40.18 24.291 40.2019 24.5525 40.4199 24.7341C40.6605 24.9346 40.9395 24.8805 41.0781 24.8343L40.7619 23.8857ZM41.1543 24.3181C41.3791 23.6439 41.3438 22.9906 40.984 22.415L40.136 22.945C40.3096 23.2227 40.3543 23.5561 40.2057 24.0019L41.1543 24.3181ZM40.9958 22.4349C40.636 21.7953 39.9731 21.54 39.2 21.54V22.54C39.7602 22.54 40.004 22.7114 40.1242 22.9251L40.9958 22.4349ZM39.2 21.54C38.084 21.54 37.2521 22.2577 36.6728 23.4164L37.5672 23.8636C38.0545 22.889 38.6093 22.54 39.2 22.54V21.54ZM36.6684 23.4255C36.1189 24.5822 35.86 26.0497 35.86 27.8H36.86C36.86 26.137 37.1077 24.8311 37.5716 23.8545L36.6684 23.4255ZM35.86 27.8C35.86 28.4787 35.9913 29.08 36.3371 29.5193C36.7009 29.9814 37.2335 30.18 37.84 30.18V29.18C37.4598 29.18 37.2524 29.0653 37.1229 28.9007C36.9754 28.7134 36.86 28.3746 36.86 27.8H35.86ZM37.84 30.18C38.4116 30.18 38.994 29.9787 39.5772 29.6287L39.0628 28.7713C38.5794 29.0613 38.175 29.18 37.84 29.18V30.18ZM39.5832 29.6251C40.1902 29.2494 40.736 28.7744 41.221 28.2038L40.459 27.5562C40.0373 28.0523 39.5698 28.4573 39.0568 28.7749L39.5832 29.6251ZM41.0636 28.3272C41.0501 28.334 40.9971 28.3561 40.9193 28.345C40.8387 28.3335 40.7872 28.2943 40.7664 28.2736L41.4736 27.5664C41.3728 27.4657 41.2346 27.3799 41.0607 27.355C40.8896 27.3306 40.7365 27.3727 40.6164 27.4328L41.0636 28.3272ZM40.7664 28.2736C40.7457 28.2528 40.7065 28.2013 40.695 28.1207C40.6839 28.0429 40.706 27.9899 40.7128 27.9764L41.6072 28.4236C41.6673 28.3035 41.7094 28.1504 41.685 27.9793C41.6601 27.8054 41.5743 27.6672 41.4736 27.5664L40.7664 28.2736ZM40.766 27.8922C40.1318 28.7039 39.4288 29.3417 38.6587 29.8137L39.1813 30.6663C40.0645 30.125 40.8548 29.4028 41.554 28.5078L40.766 27.8922ZM38.6587 29.8137C37.9075 30.2741 37.1174 30.5 36.28 30.5V31.5C37.3092 31.5 38.2792 31.2192 39.1813 30.6663L38.6587 29.8137ZM36.28 30.5C35.8205 30.5 35.456 30.3489 35.1536 30.0464L34.4464 30.7536C34.944 31.2511 35.5662 31.5 36.28 31.5V30.5ZM35.1648 30.058C34.8738 29.7476 34.7 29.2961 34.7 28.64H33.7C33.7 29.4772 33.9262 30.199 34.4352 30.742L35.1648 30.058ZM34.7 28.64C34.7 27.775 34.8727 26.9046 35.2242 26.0257L34.2958 25.6543C33.9006 26.6421 33.7 27.6383 33.7 28.64H34.7ZM35.2215 26.0323C35.6042 25.114 36.0863 24.3035 36.6664 23.5974L35.8936 22.9626C35.247 23.7499 34.7158 24.646 34.2985 25.6477L35.2215 26.0323ZM36.6664 23.5974C37.2502 22.8866 37.8775 22.3243 38.5464 21.9031L38.0136 21.0569C37.2425 21.5424 36.5365 22.18 35.8936 22.9626L36.6664 23.5974ZM38.5574 21.896C39.2156 21.4572 39.8274 21.26 40.4 21.26V20.26C39.586 20.26 38.7844 20.5428 38.0026 21.064L38.5574 21.896ZM40.4 21.26C40.9159 21.26 41.2558 21.4029 41.4864 21.6336L42.1936 20.9264C41.7309 20.4638 41.1108 20.26 40.4 20.26V21.26ZM41.4864 21.6336C41.7545 21.9016 41.86 22.1659 41.86 22.44H42.86C42.86 21.8607 42.6188 21.3517 42.1936 20.9264L41.4864 21.6336ZM41.86 22.44C41.86 22.4881 41.8437 22.5758 41.7659 22.7119L42.6341 23.2081C42.7697 22.9709 42.86 22.7119 42.86 22.44H41.86ZM41.7404 22.763C41.6841 22.8945 41.5941 23.0386 41.4604 23.1946L42.2196 23.8454C42.4059 23.628 42.5559 23.3989 42.6596 23.157L41.7404 22.763ZM41.4331 23.2294C41.3249 23.3809 41.1928 23.5248 41.0346 23.6604L41.6854 24.4196C41.9005 24.2352 42.0885 24.0324 42.2469 23.8106L41.4331 23.2294ZM41.0064 23.6864C40.8698 23.8231 40.779 23.8779 40.7343 23.8958L41.1057 24.8242C41.3276 24.7355 41.5302 24.5769 41.7136 24.3936L41.0064 23.6864ZM64.2206 1.6L63.8884 1.9737L63.9101 1.99298L63.9339 2.00962L64.2206 1.6ZM64.7406 2.4L64.2534 2.51243L64.2588 2.53558L64.2663 2.55811L64.7406 2.4ZM64.7806 3.52L64.2892 3.42785L64.2864 3.44285L64.2845 3.45798L64.7806 3.52ZM64.3406 4.8L64.6942 5.15355L64.7427 5.10499L64.7764 5.04513L64.3406 4.8ZM63.9806 4.6L63.4874 4.5178L63.467 4.6403L63.5063 4.75811L63.9806 4.6ZM63.6206 3.8L63.3083 4.19043L63.3172 4.19761L63.3265 4.20437L63.6206 3.8ZM59.0206 4.72L59.3159 5.12352L59.3176 5.12229L59.0206 4.72ZM55.8206 7.92L55.4264 7.61248L55.8206 7.92ZM52.9006 12.52L53.3437 12.7517L53.3437 12.7517L52.9006 12.52ZM50.5406 17.88L50.0705 17.7097L50.0705 17.7097L50.5406 17.88ZM48.9406 23.36L48.4523 23.2523L48.4509 23.2592L48.9406 23.36ZM49.9806 29.12L49.6605 28.7359L49.6523 28.7428L49.6443 28.75L49.9806 29.12ZM51.0606 27.92L50.7833 27.504L50.712 27.5515L50.6606 27.62L51.0606 27.92ZM51.2606 27.96L50.8446 28.2374L50.9001 28.3206L50.9833 28.376L51.2606 27.96ZM51.3406 28.2L51.7567 28.4774L51.8047 28.4053L51.8257 28.3213L51.3406 28.2ZM49.4606 30.2L49.7582 30.6018L49.7582 30.6018L49.4606 30.2ZM46.4206 30.56L45.9988 30.8284L46.0071 30.8415L46.0163 30.8541L46.4206 30.56ZM46.9406 24.76L47.4214 24.8974L47.4219 24.8956L46.9406 24.76ZM49.0606 18.8L48.6013 18.6023L48.6001 18.6052L49.0606 18.8ZM52.1806 12.52L52.6161 12.7657L52.1806 12.52ZM55.8206 6.92L55.4229 6.61698L55.4222 6.61795L55.8206 6.92ZM59.6606 2.84L59.3453 2.45194L59.3453 2.45194L59.6606 2.84ZM63.2606 1.78C63.5694 1.78 63.7609 1.86034 63.8884 1.9737L64.5528 1.2263C64.2003 0.91299 63.7518 0.779999 63.2606 0.779999V1.78ZM63.9339 2.00962C64.0895 2.11857 64.1984 2.27406 64.2534 2.51243L65.2278 2.28757C65.1228 1.8326 64.885 1.45476 64.5074 1.19038L63.9339 2.00962ZM64.2663 2.55811C64.3394 2.7776 64.3579 3.06133 64.2892 3.42785L65.2721 3.61214C65.3633 3.12534 65.3551 2.6624 65.215 2.24189L64.2663 2.55811ZM64.2845 3.45798C64.2402 3.81197 64.1174 4.17697 63.9048 4.55487L64.7764 5.04513C65.0438 4.5697 65.2143 4.08136 65.2768 3.58202L64.2845 3.45798ZM63.9871 4.44644C64.0408 4.39277 64.1335 4.34 64.2506 4.34C64.3507 4.34 64.4104 4.37895 64.418 4.38397L63.8633 5.21603C63.9508 5.27438 64.0839 5.34 64.2506 5.34C64.4344 5.34 64.5872 5.26056 64.6942 5.15355L63.9871 4.44644ZM64.418 4.38397C64.4155 4.38229 64.4218 4.3861 64.4311 4.39765C64.4408 4.40979 64.4494 4.42522 64.455 4.44188L63.5063 4.75811C63.573 4.95813 63.7044 5.11009 63.8633 5.21603L64.418 4.38397ZM64.4738 4.6822C64.5149 4.4359 64.4915 4.18788 64.3866 3.95482C64.2833 3.72518 64.115 3.5413 63.9147 3.39563L63.3265 4.20437C63.4196 4.27203 63.458 4.32815 63.4747 4.36518C63.4898 4.39878 63.4997 4.4441 63.4874 4.5178L64.4738 4.6822ZM63.933 3.40957C63.5335 3.08995 62.9671 2.98 62.3406 2.98V3.98C62.8875 3.98 63.1745 4.08338 63.3083 4.19043L63.933 3.40957ZM62.3406 2.98C61.1143 2.98 59.906 3.44504 58.7237 4.31771L59.3176 5.12229C60.3752 4.34163 61.3802 3.98 62.3406 3.98V2.98ZM58.7254 4.31648C57.5869 5.14953 56.4881 6.25134 55.4264 7.61248L56.2149 8.22751C57.2332 6.92199 58.2677 5.89047 59.3159 5.12352L58.7254 4.31648ZM55.4264 7.61248C54.3653 8.9729 53.3761 10.5323 52.4576 12.2883L53.3437 12.7517C54.2385 11.041 55.196 9.53377 56.2149 8.22751L55.4264 7.61248ZM52.4576 12.2883C51.5405 14.0414 50.7448 15.8486 50.0705 17.7097L51.0107 18.0503C51.6698 16.2314 52.4474 14.4652 53.3437 12.7517L52.4576 12.2883ZM50.0705 17.7097C49.3968 19.569 48.8573 21.4166 48.4524 23.2523L49.4289 23.4677C49.824 21.6767 50.3511 19.871 51.0107 18.0503L50.0705 17.7097ZM48.4509 23.2592C48.0723 25.0981 47.8806 26.7859 47.8806 28.32H48.8806C48.8806 26.8675 49.0623 25.2485 49.4304 23.4608L48.4509 23.2592ZM47.8806 28.32C47.8806 28.7508 47.9388 29.1545 48.1156 29.4665C48.3162 29.8204 48.6507 30.02 49.0606 30.02V29.02C49.0408 29.02 49.0291 29.0178 49.0235 29.0164C49.0183 29.0151 49.0167 29.014 49.0166 29.014C49.0166 29.014 49.0143 29.0128 49.0098 29.0079C49.0049 29.0028 48.9963 28.9924 48.9856 28.9735C48.9358 28.8855 48.8806 28.6892 48.8806 28.32H47.8806ZM49.0606 30.02C49.5329 30.02 49.9545 29.8194 50.317 29.49L49.6443 28.75C49.42 28.9539 49.2284 29.02 49.0606 29.02V30.02ZM50.3007 29.5041C50.6628 29.2024 51.0495 28.7682 51.4606 28.22L50.6606 27.62C50.2718 28.1384 49.9384 28.5043 49.6605 28.7359L50.3007 29.5041ZM51.338 28.336C51.3138 28.3521 51.2151 28.4088 51.0726 28.3803C50.93 28.3518 50.8607 28.2615 50.8446 28.2374L51.6767 27.6826C51.6072 27.5785 51.4779 27.4416 51.2687 27.3997C51.0595 27.3579 50.8874 27.4346 50.7833 27.504L51.338 28.336ZM50.9833 28.376C50.9444 28.3501 50.893 28.2981 50.8663 28.2181C50.8417 28.1443 50.8527 28.0901 50.8556 28.0787L51.8257 28.3213C51.8552 28.2032 51.8662 28.0557 51.815 27.9019C51.7616 27.7419 51.6569 27.6232 51.538 27.544L50.9833 28.376ZM50.9246 27.9226C50.4209 28.6782 49.8334 29.3017 49.163 29.7982L49.7582 30.6018C50.5279 30.0317 51.1937 29.3218 51.7567 28.4774L50.9246 27.9226ZM49.163 29.7982C48.4863 30.2995 47.9369 30.5 47.5006 30.5V31.5C48.2377 31.5 48.9949 31.1672 49.7582 30.6018L49.163 29.7982ZM47.5006 30.5C47.0859 30.5 46.9103 30.3832 46.825 30.2659L46.0163 30.8541C46.3576 31.3234 46.902 31.5 47.5006 31.5V30.5ZM46.8425 30.2916C46.7202 30.0995 46.6406 29.8266 46.6406 29.44H45.6406C45.6406 29.96 45.7477 30.4339 45.9988 30.8284L46.8425 30.2916ZM46.6406 29.44C46.6406 28.2512 46.8946 26.741 47.4214 24.8974L46.4599 24.6226C45.9199 26.5124 45.6406 28.1221 45.6406 29.44H46.6406ZM47.4219 24.8956C47.9488 23.0251 48.6481 21.0583 49.5211 18.9948L48.6001 18.6052C47.7131 20.7017 46.9991 22.7082 46.4594 24.6244L47.4219 24.8956ZM49.5199 18.9977C50.4192 16.9081 51.4512 14.8307 52.6161 12.7657L51.7451 12.2743C50.5634 14.3693 49.5154 16.4786 48.6014 18.6023L49.5199 18.9977ZM52.6161 12.7657C53.78 10.7024 54.9812 8.855 56.2191 7.22205L55.4222 6.61795C54.1534 8.29166 52.9279 10.1776 51.7451 12.2743L52.6161 12.7657ZM56.2183 7.22302C57.4807 5.56621 58.7338 4.23725 59.9759 3.22805L59.3453 2.45194C58.0274 3.52275 56.7206 4.91379 55.4229 6.61698L56.2183 7.22302ZM59.9759 3.22805C61.2075 2.22739 62.2988 1.78 63.2606 1.78V0.779999C61.9825 0.779999 60.6737 1.37261 59.3453 2.45194L59.9759 3.22805ZM60.1163 19.04L60.4698 19.3936L60.5217 19.3417L60.5565 19.277L60.1163 19.04ZM59.8363 19.04L59.4827 19.3936L59.5078 19.4187L59.5362 19.44L59.8363 19.04ZM59.6363 18.72L59.1619 18.8781L59.1666 18.8921L59.172 18.9057L59.6363 18.72ZM59.6763 17.76L59.2831 17.4511L59.2637 17.4758L59.2475 17.5028L59.6763 17.76ZM60.9563 16.36L60.6027 16.0064L60.6027 16.0064L60.9563 16.36ZM62.7563 14.88L62.5326 14.4328L62.5071 14.4456L62.4831 14.4612L62.7563 14.88ZM62.9563 14.96L62.6027 15.3136L62.6377 15.3486L62.6789 15.376L62.9563 14.96ZM63.0363 15.12L63.3717 15.4908L63.4414 15.4277L63.4835 15.3436L63.0363 15.12ZM61.4363 16.96L61.84 17.2551L61.8452 17.2477L61.4363 16.96ZM55.8363 23.56L56.1136 23.976L56.1425 23.9568L56.1684 23.9337L55.8363 23.56ZM55.6363 23.52L55.189 23.7436L55.203 23.7714L55.2202 23.7974L55.6363 23.52ZM55.5963 23.24L55.2813 22.8516L55.168 22.9435L55.1219 23.0819L55.5963 23.24ZM59.7163 20.76V20.26H59.6014L59.4981 20.3101L59.7163 20.76ZM60.0363 21.12L60.4715 21.366L60.5363 21.2515V21.12H60.0363ZM58.9963 23.12L58.5458 22.9031L58.5424 22.91L58.5393 22.9169L58.9963 23.12ZM58.1163 25.28L57.6473 25.1063L57.6438 25.1164L58.1163 25.28ZM57.5163 27.32L58.0013 27.4413L58.0024 27.4367L57.5163 27.32ZM58.6763 29.36L59.0107 29.7317L59.0126 29.73L58.6763 29.36ZM59.6763 28.36L59.3227 28.0064L59.3166 28.0125L59.3107 28.0188L59.6763 28.36ZM59.8763 28.4L59.5227 28.7536L59.5577 28.7886L59.5989 28.816L59.8763 28.4ZM59.9163 28.68L60.2979 29.003L60.3504 28.941L60.3805 28.8657L59.9163 28.68ZM58.1563 30.36L57.8621 29.9555L57.8532 29.9623L58.1563 30.36ZM55.3163 28L54.8301 27.8833L54.8283 27.8906L54.8268 27.898L55.3163 28ZM55.9163 26L55.4495 25.8205L55.4458 25.8306L55.9163 26ZM56.7563 24L56.3054 23.7836L56.3017 23.7917L56.7563 24ZM57.7163 22.28L58.1323 22.5573L57.4768 21.8411L57.7163 22.28ZM56.7163 22.88L56.4459 22.4594L56.4387 22.464L56.4316 22.4689L56.7163 22.88ZM59.7627 18.6864C59.7952 18.6539 59.873 18.6 59.9863 18.6C60.0355 18.6 60.0744 18.6107 60.0994 18.6208C60.1235 18.6304 60.1358 18.6396 60.1363 18.64L59.5362 19.44C59.6402 19.518 59.7938 19.6 59.9863 19.6C60.1928 19.6 60.3573 19.5061 60.4698 19.3936L59.7627 18.6864ZM60.1898 18.6864C60.1687 18.6653 60.1352 18.6211 60.1005 18.5343L59.172 18.9057C59.244 19.0856 59.3438 19.2546 59.4827 19.3936L60.1898 18.6864ZM60.1106 18.5619C60.0733 18.4501 60.0563 18.3434 60.0563 18.24H59.0563C59.0563 18.4566 59.0925 18.6699 59.1619 18.8781L60.1106 18.5619ZM60.0563 18.24C60.0563 18.1257 60.0802 18.0586 60.105 18.0172L59.2475 17.5028C59.1123 17.7281 59.0563 17.981 59.0563 18.24H60.0563ZM60.0694 18.0689C60.345 17.7181 60.7559 17.2674 61.3098 16.7136L60.6027 16.0064C60.0366 16.5726 59.5941 17.0552 59.2831 17.4511L60.0694 18.0689ZM61.3098 16.7136C61.8752 16.1482 62.4486 15.6776 63.0294 15.2988L62.4831 14.4612C61.8373 14.8824 61.2107 15.3985 60.6027 16.0064L61.3098 16.7136ZM62.9799 15.3272C62.9233 15.3555 62.8609 15.37 62.7987 15.37C62.739 15.37 62.6916 15.3567 62.6606 15.3442C62.6053 15.3221 62.5861 15.2969 62.6027 15.3136L63.3098 14.6064C63.2464 14.5431 63.1539 14.4645 63.0319 14.4158C62.8955 14.3612 62.713 14.3426 62.5326 14.4328L62.9799 15.3272ZM62.6789 15.376C62.6786 15.3758 62.668 15.3688 62.6527 15.3536C62.6376 15.3385 62.6118 15.3091 62.589 15.2636C62.5651 15.2158 62.5463 15.153 62.5463 15.08C62.5463 15.007 62.5651 14.9442 62.589 14.8964L63.4835 15.3436C63.5672 15.1762 63.5672 14.9838 63.4835 14.8164C63.4143 14.6781 63.3062 14.5923 63.2336 14.544L62.6789 15.376ZM62.7008 14.7492C62.1092 15.2845 61.5519 15.9268 61.0273 16.6723L61.8452 17.2477C62.3339 16.5532 62.8433 15.9689 63.3717 15.4908L62.7008 14.7492ZM61.0326 16.665C60.5136 17.3751 60.0611 18.0878 59.676 18.8029L60.5565 19.277C60.9181 18.6056 61.3456 17.9315 61.8399 17.255L61.0326 16.665ZM55.5589 23.144C55.583 23.1279 55.6817 23.0712 55.8243 23.0997C55.9669 23.1282 56.0362 23.2185 56.0523 23.2426L55.2202 23.7974C55.2896 23.9015 55.419 24.0384 55.6282 24.0803C55.8374 24.1221 56.0095 24.0454 56.1136 23.976L55.5589 23.144ZM56.0835 23.2964C56.0748 23.279 56.0786 23.2808 56.0812 23.2993C56.0842 23.3203 56.0846 23.3562 56.0706 23.3981L55.1219 23.0819C55.0385 23.3321 55.1012 23.568 55.189 23.7436L56.0835 23.2964ZM55.9112 23.6284C56.8566 22.8618 58.1925 22.0545 59.9344 21.2099L59.4981 20.3101C57.72 21.1722 56.3092 22.0182 55.2813 22.8516L55.9112 23.6284ZM59.7163 21.26C59.724 21.26 59.7088 21.2612 59.6807 21.2507C59.6496 21.239 59.6134 21.2168 59.5825 21.1822C59.5224 21.1145 59.5363 21.0635 59.5363 21.12H60.5363C60.5363 20.9365 60.4967 20.7055 60.33 20.5178C60.1532 20.319 59.9162 20.26 59.7163 20.26V21.26ZM59.601 20.874C59.2483 21.498 58.8966 22.1745 58.5458 22.9031L59.4468 23.3369C59.7893 22.6255 60.1309 21.9687 60.4715 21.366L59.601 20.874ZM58.5393 22.9169C58.2152 23.6464 57.9178 24.3762 57.6474 25.1063L58.5851 25.4537C58.848 24.7438 59.1373 24.0336 59.4532 23.3231L58.5393 22.9169ZM57.6438 25.1164C57.3988 25.8241 57.1941 26.5198 57.0301 27.2033L58.0024 27.4367C58.1584 26.7869 58.3537 26.1226 58.5887 25.4436L57.6438 25.1164ZM57.0312 27.1987C56.866 27.8593 56.7763 28.4366 56.7763 28.92H57.7763C57.7763 28.55 57.8465 28.0607 58.0013 27.4413L57.0312 27.1987ZM56.7763 28.92C56.7763 29.2297 56.8277 29.5511 57.0066 29.8067C57.2084 30.0949 57.5141 30.22 57.8363 30.22V29.22C57.8024 29.22 57.7968 29.2141 57.8062 29.2186C57.8107 29.2207 57.8158 29.2239 57.8204 29.2279C57.8249 29.2317 57.8266 29.2343 57.8259 29.2333C57.824 29.2306 57.8107 29.2099 57.7982 29.1564C57.7857 29.1028 57.7763 29.0258 57.7763 28.92H56.7763ZM57.8363 30.22C58.2792 30.22 58.6737 30.035 59.0107 29.7316L58.3418 28.9884C58.1455 29.165 57.98 29.22 57.8363 29.22V30.22ZM59.0126 29.73C59.319 29.4514 59.6623 29.1077 60.0418 28.7012L59.3107 28.0188C58.9435 28.4123 58.6201 28.7353 58.3399 28.99L59.0126 29.73ZM60.0298 28.7136C59.9987 28.7446 59.9484 28.783 59.8769 28.8068C59.8032 28.8314 59.7302 28.8327 59.6682 28.8203C59.5597 28.7986 59.5108 28.7417 59.5227 28.7536L60.2298 28.0464C60.1617 27.9783 60.0394 27.8747 59.8643 27.8397C59.647 27.7962 59.4524 27.8768 59.3227 28.0064L60.0298 28.7136ZM59.5989 28.816C59.5672 28.7949 59.5314 28.7623 59.5019 28.7159C59.4723 28.6694 59.4571 28.6217 59.4513 28.5807C59.4407 28.5068 59.4618 28.4698 59.452 28.4943L60.3805 28.8657C60.424 28.7569 60.4651 28.6065 60.4412 28.4393C60.414 28.2486 60.3093 28.0878 60.1536 27.984L59.5989 28.816ZM59.5346 28.357C58.9676 29.0271 58.4096 29.5575 57.8622 29.9556L58.4503 30.7644C59.0763 30.3091 59.6916 29.7195 60.2979 29.003L59.5346 28.357ZM57.8532 29.9623C57.3525 30.3438 56.9096 30.5 56.5163 30.5V31.5C57.1895 31.5 57.84 31.2295 58.4593 30.7577L57.8532 29.9623ZM56.5163 30.5C56.1196 30.5 55.915 30.4059 55.8093 30.3062C55.709 30.2117 55.6163 30.0352 55.6163 29.68H54.6163C54.6163 30.2048 54.7568 30.6883 55.1232 31.0338C55.4841 31.3741 55.9796 31.5 56.5163 31.5V30.5ZM55.6163 29.68C55.6163 29.244 55.6771 28.7196 55.8057 28.102L54.8268 27.898C54.6888 28.5604 54.6163 29.156 54.6163 29.68H55.6163ZM55.8024 28.1167C55.958 27.4684 56.1527 26.8193 56.3867 26.1694L55.4458 25.8306C55.1998 26.514 54.9945 27.1982 54.8301 27.8833L55.8024 28.1167ZM56.3829 26.1795C56.646 25.4954 56.922 24.8383 57.2108 24.2083L56.3017 23.7917C56.0038 24.4417 55.7198 25.118 55.4496 25.8205L56.3829 26.1795ZM57.207 24.2164C57.5195 23.5653 57.8283 23.0133 58.1323 22.5573L57.3002 22.0026C56.9642 22.5067 56.633 23.1014 56.3055 23.7836L57.207 24.2164ZM57.4768 21.8411C57.1702 22.0083 56.8262 22.2149 56.4459 22.4594L56.9866 23.3006C57.3529 23.0651 57.6756 22.8717 57.9557 22.7189L57.4768 21.8411ZM56.4316 22.4689C56.0732 22.7171 55.763 22.9562 55.5041 23.1863L56.1684 23.9337C56.3895 23.7372 56.666 23.5229 57.0009 23.2911L56.4316 22.4689ZM75.7569 28.2L75.4033 27.8464L75.3813 27.8685L75.3622 27.893L75.7569 28.2ZM75.9569 28.24L75.6033 28.5936L75.6383 28.6286L75.6795 28.656L75.9569 28.24ZM76.0369 28.48L76.4426 28.7722L76.4987 28.6943L76.5219 28.6013L76.0369 28.48ZM74.3569 30.24L74.0465 29.8479L74.0384 29.8545L74.3569 30.24ZM71.4369 30.56L71.0499 30.8766L71.0581 30.8867L71.0669 30.8963L71.4369 30.56ZM71.5569 26.36L71.0801 26.2088L71.077 26.2196L71.5569 26.36ZM72.9169 23.04L73.3641 23.2636L73.3707 23.2505L73.3764 23.237L72.9169 23.04ZM69.3969 24.08L69.7685 24.4145L69.7718 24.4108L69.3969 24.08ZM66.0769 30.48L65.6043 30.3167L65.6025 30.3219L66.0769 30.48ZM65.7969 30.72L65.9826 31.1842L66.0019 31.1765L66.0205 31.1672L65.7969 30.72ZM65.3169 30.88L65.3876 31.375L65.4214 31.3701L65.4542 31.3608L65.3169 30.88ZM64.7569 30.96L64.6862 30.465L64.6862 30.465L64.7569 30.96ZM63.9969 30.92L63.6433 31.2736L63.6783 31.3086L63.7195 31.336L63.9969 30.92ZM63.9969 30.64L64.4611 30.8257L64.4619 30.8238L63.9969 30.64ZM65.3569 26.88L64.8844 26.7164L64.8825 26.7219L65.3569 26.88ZM66.5969 22.72L66.118 22.5763L66.1146 22.5875L66.1118 22.5987L66.5969 22.72ZM66.6369 22.16L66.1726 22.3457L66.1804 22.365L66.1897 22.3836L66.6369 22.16ZM65.5169 22.36L65.8514 22.7316L65.8611 22.7229L65.8704 22.7136L65.5169 22.36ZM64.7969 23.16L65.0742 23.576L65.1486 23.5264L65.2012 23.4541L64.7969 23.16ZM64.5569 23.12L64.1408 23.3974L64.1683 23.4385L64.2033 23.4736L64.5569 23.12ZM64.5169 22.88L64.11 22.5894L64.0663 22.6506L64.0425 22.7219L64.5169 22.88ZM65.0369 22.24L64.6833 21.8864L64.6729 21.8968L64.6632 21.9078L65.0369 22.24ZM65.8369 21.56L66.131 21.9644L66.1425 21.956L66.1535 21.947L65.8369 21.56ZM66.7569 21L66.9492 21.4615L66.9651 21.4549L66.9805 21.4472L66.7569 21ZM68.5969 21.2L68.1417 21.4069L68.1535 21.4328L68.1681 21.4572L68.5969 21.2ZM68.7169 22.2L69.2046 22.3108L69.2072 22.2981L68.7169 22.2ZM68.2769 23.88L67.798 23.7363L67.7955 23.7445L67.7933 23.7528L68.2769 23.88ZM67.7569 25.6L67.2825 25.4419L68.1958 25.8394L67.7569 25.6ZM68.9169 23.88L68.5299 23.5634L68.5283 23.5654L68.9169 23.88ZM70.4769 22.32L70.7915 22.7086L70.7935 22.707L70.4769 22.32ZM72.3569 21.2L72.5426 21.6642L72.5505 21.6611L72.5582 21.6577L72.3569 21.2ZM75.1969 21L74.8433 21.3536L74.8569 21.3671L74.8715 21.3796L75.1969 21ZM75.1969 22.56L74.775 22.2916L74.7667 22.3046L74.7593 22.3182L75.1969 22.56ZM73.7569 25.72L73.2873 25.5482L73.2849 25.5548L73.7569 25.72ZM74.7569 29.28L74.4403 28.893L74.4403 28.893L74.7569 29.28ZM76.1104 28.5536C76.0794 28.5846 76.029 28.623 75.9575 28.6468C75.8838 28.6714 75.8109 28.6727 75.7488 28.6603C75.6403 28.6386 75.5914 28.5817 75.6033 28.5936L76.3104 27.8864C76.2423 27.8183 76.1201 27.7147 75.9449 27.6797C75.7276 27.6362 75.533 27.7168 75.4033 27.8464L76.1104 28.5536ZM75.6795 28.656C75.6406 28.6301 75.5892 28.5781 75.5625 28.4981C75.5379 28.4243 75.549 28.3701 75.5518 28.3587L76.5219 28.6013C76.5515 28.4832 76.5625 28.3357 76.5112 28.1819C76.4579 28.0219 76.3531 27.9032 76.2342 27.824L75.6795 28.656ZM75.6311 28.1878C75.178 28.8172 74.65 29.3702 74.0465 29.848L74.6672 30.632C75.3437 30.0965 75.9358 29.4761 76.4426 28.7722L75.6311 28.1878ZM74.0384 29.8545C73.4877 30.3095 72.9832 30.5 72.5169 30.5V31.5C73.2772 31.5 73.9994 31.1839 74.6753 30.6255L74.0384 29.8545ZM72.5169 30.5C72.1821 30.5 71.9647 30.3973 71.8068 30.2237L71.0669 30.8963C71.4424 31.3093 71.945 31.5 72.5169 31.5V30.5ZM71.8239 30.2434C71.6746 30.061 71.5769 29.796 71.5769 29.4H70.5769C70.5769 29.964 70.7191 30.4723 71.0499 30.8766L71.8239 30.2434ZM71.5769 29.4C71.5769 28.5233 71.7273 27.5578 72.0367 26.5004L71.077 26.2196C70.7465 27.3488 70.5769 28.41 70.5769 29.4H71.5769ZM72.0335 26.5111C72.3716 25.4448 72.8147 24.3624 73.3641 23.2636L72.4697 22.8164C71.899 23.9576 71.4355 25.0885 71.0803 26.2089L72.0335 26.5111ZM73.3764 23.237C73.4845 22.9849 73.5369 22.7176 73.5369 22.44H72.5369C72.5369 22.5891 72.5093 22.7217 72.4573 22.843L73.3764 23.237ZM73.5369 22.44C73.5369 22.2418 73.4934 21.9999 73.3185 21.8055C73.1346 21.6012 72.8884 21.54 72.6769 21.54V22.54C72.6919 22.54 72.6833 22.5422 72.6607 22.5339C72.6353 22.5245 72.6031 22.5055 72.5752 22.4745C72.5203 22.4135 72.5369 22.3715 72.5369 22.44H73.5369ZM72.6769 21.54C71.4643 21.54 70.2435 22.3647 69.022 23.7492L69.7718 24.4108C70.9502 23.0753 71.9161 22.54 72.6769 22.54V21.54ZM69.0252 23.7455C67.7591 25.1523 66.6258 27.3596 65.6043 30.3167L66.5495 30.6433C67.5546 27.7337 68.6346 25.6743 69.7685 24.4145L69.0252 23.7455ZM65.6025 30.3219C65.6157 30.2824 65.633 30.2552 65.6444 30.24C65.6556 30.2251 65.6632 30.2189 65.6615 30.2204C65.66 30.2216 65.6528 30.2275 65.6374 30.2373C65.6221 30.2469 65.6012 30.2588 65.5733 30.2728L66.0205 31.1672C66.1221 31.1164 66.224 31.0553 66.3123 30.9796C66.3982 30.906 66.499 30.7947 66.5512 30.6381L65.6025 30.3219ZM65.6112 30.2558C65.4981 30.301 65.3551 30.3491 65.1795 30.3992L65.4542 31.3608C65.652 31.3043 65.829 31.2457 65.9826 31.1842L65.6112 30.2558ZM65.2462 30.385C65.0595 30.4117 64.8728 30.4384 64.6862 30.465L64.8276 31.455C65.0143 31.4283 65.2009 31.4016 65.3876 31.375L65.2462 30.385ZM64.6862 30.465C64.5081 30.4905 64.3885 30.5 64.3169 30.5V31.5C64.4585 31.5 64.6323 31.4829 64.8276 31.455L64.6862 30.465ZM64.3169 30.5C64.2828 30.5 64.2645 30.4965 64.2581 30.4949C64.2525 30.4935 64.2602 30.4946 64.2742 30.504L63.7195 31.336C63.9078 31.4615 64.1217 31.5 64.3169 31.5V30.5ZM64.3504 30.5664C64.4387 30.6548 64.4569 30.7574 64.4569 30.81C64.4569 30.8517 64.4467 30.8618 64.4611 30.8257L63.5326 30.4543C63.4738 30.6013 63.3525 30.9827 63.6433 31.2736L64.3504 30.5664ZM64.4619 30.8238C64.919 29.6674 65.3754 28.4054 65.8312 27.0381L64.8825 26.7219C64.4316 28.0746 63.9814 29.3192 63.5319 30.4562L64.4619 30.8238ZM65.8294 27.0436C66.3141 25.6434 66.7316 24.2426 67.0819 22.8413L66.1118 22.5987C65.7688 23.9708 65.3597 25.3433 64.8844 26.7164L65.8294 27.0436ZM67.0758 22.8637C67.1218 22.7104 67.1554 22.5587 67.1656 22.4156C67.1753 22.2792 67.1675 22.1033 67.0841 21.9364L66.1897 22.3836C66.1734 22.3511 66.1697 22.3276 66.169 22.3226C66.1683 22.3175 66.1696 22.3236 66.1681 22.3444C66.165 22.388 66.152 22.4629 66.118 22.5763L67.0758 22.8637ZM67.1011 21.9743C67.0478 21.8411 66.9595 21.7046 66.8175 21.6031C66.6728 21.4998 66.5103 21.46 66.3569 21.46V22.46C66.3368 22.46 66.2876 22.4535 66.2363 22.4169C66.213 22.4003 66.1967 22.3825 66.1862 22.3682C66.1811 22.3613 66.1777 22.3555 66.1756 22.3517C66.1745 22.3497 66.1738 22.3482 66.1733 22.3472C66.1731 22.3467 66.1729 22.3463 66.1728 22.3461C66.1727 22.3458 66.1726 22.3457 66.1726 22.3457L67.1011 21.9743ZM66.3569 21.46C65.896 21.46 65.4957 21.674 65.1633 22.0064L65.8704 22.7136C66.0714 22.5126 66.2311 22.46 66.3569 22.46V21.46ZM65.1824 21.9884C64.8895 22.252 64.6261 22.5447 64.3925 22.8659L65.2012 23.4541C65.3943 23.1887 65.6109 22.948 65.8514 22.7316L65.1824 21.9884ZM64.5195 22.744C64.5644 22.7141 64.6511 22.6788 64.7591 22.6968C64.8553 22.7128 64.905 22.761 64.9104 22.7664L64.2033 23.4736C64.2887 23.559 64.4184 23.6538 64.5947 23.6832C64.7827 23.7145 64.9494 23.6592 65.0742 23.576L64.5195 22.744ZM64.9729 22.8426C64.9783 22.8507 64.9932 22.8763 65.0001 22.9178C65.0074 22.9615 65.0026 23.0039 64.9912 23.0381L64.0425 22.7219C63.9598 22.9701 64.0155 23.2094 64.1408 23.3974L64.9729 22.8426ZM64.9237 23.1706C65.0436 23.0028 65.2048 22.8037 65.4106 22.5722L64.6632 21.9078C64.4423 22.1563 64.2568 22.3839 64.11 22.5894L64.9237 23.1706ZM65.3904 22.5936C65.6108 22.3732 65.8573 22.1634 66.131 21.9644L65.5428 21.1556C65.2298 21.3833 64.943 21.6268 64.6833 21.8864L65.3904 22.5936ZM66.1535 21.947C66.4127 21.7349 66.678 21.5745 66.9492 21.4615L66.5646 20.5385C66.1958 20.6921 65.8477 20.9051 65.5203 21.173L66.1535 21.947ZM66.9805 21.4472C67.2393 21.3178 67.4833 21.26 67.7169 21.26V20.26C67.3105 20.26 66.9144 20.3622 66.5333 20.5528L66.9805 21.4472ZM67.7169 21.26C68.0672 21.26 68.122 21.3636 68.1417 21.4069L69.0521 20.9931C68.8051 20.4497 68.2732 20.26 67.7169 20.26V21.26ZM68.1681 21.4572C68.2463 21.5875 68.29 21.785 68.2266 22.1019L69.2072 22.2981C69.3038 21.815 69.2675 21.3458 69.0256 20.9428L68.1681 21.4572ZM68.2293 22.0892C68.0983 22.6657 67.9545 23.2147 67.798 23.7363L68.7558 24.0237C68.9193 23.4787 69.0688 22.9077 69.2044 22.3108L68.2293 22.0892ZM67.7933 23.7528C67.6634 24.2466 67.4934 24.8093 67.2825 25.4419L68.2312 25.7581C68.447 25.1107 68.6237 24.5267 68.7604 24.0072L67.7933 23.7528ZM68.1958 25.8394C68.5003 25.2813 68.8697 24.7329 69.3055 24.1946L68.5283 23.5654C68.0574 24.1471 67.6535 24.7454 67.3179 25.3606L68.1958 25.8394ZM69.3039 24.1966C69.7634 23.635 70.2593 23.1394 70.7915 22.7086L70.1623 21.9314C69.5744 22.4073 69.0304 22.9517 68.5299 23.5634L69.3039 24.1966ZM70.7935 22.707C71.3429 22.2575 71.9258 21.9109 72.5426 21.6642L72.1712 20.7358C71.4546 21.0224 70.7842 21.4225 70.1603 21.933L70.7935 22.707ZM72.5582 21.6577C73.1598 21.393 73.7978 21.26 74.4769 21.26V20.26C73.6627 20.26 72.8873 20.4204 72.1555 20.7423L72.5582 21.6577ZM74.4769 21.26C74.7198 21.26 74.8102 21.3204 74.8433 21.3536L75.5504 20.6464C75.2636 20.3596 74.8739 20.26 74.4769 20.26V21.26ZM74.8715 21.3796C74.9661 21.4607 74.9769 21.5157 74.9769 21.56H75.9769C75.9769 21.1777 75.801 20.8593 75.5223 20.6204L74.8715 21.3796ZM74.9769 21.56C74.9769 21.8456 74.9069 22.0844 74.775 22.2916L75.6187 22.8284C75.8602 22.4489 75.9769 22.0211 75.9769 21.56H74.9769ZM74.7593 22.3182C74.1868 23.3541 73.6961 24.4309 73.2873 25.5482L74.2264 25.8918C74.6177 24.8225 75.087 23.7926 75.6345 22.8018L74.7593 22.3182ZM73.2849 25.5548C72.8987 26.6584 72.6969 27.6755 72.6969 28.6H73.6969C73.6969 27.8178 73.8684 26.9149 74.2288 25.8852L73.2849 25.5548ZM72.6969 28.6C72.6969 28.9852 72.757 29.3608 72.9484 29.6536C73.164 29.9833 73.5004 30.14 73.8769 30.14V29.14C73.8277 29.14 73.8091 29.1309 73.8065 29.1295C73.8057 29.1292 73.7985 29.1265 73.7854 29.1064C73.7501 29.0525 73.6969 28.9081 73.6969 28.6H72.6969ZM73.8769 30.14C74.3157 30.14 74.7173 29.9584 75.0735 29.667L74.4403 28.893C74.2098 29.0816 74.0247 29.14 73.8769 29.14V30.14ZM75.0735 29.667C75.4077 29.3935 75.7673 29.0011 76.1516 28.507L75.3622 27.893C74.9998 28.3589 74.6927 28.6865 74.4403 28.893L75.0735 29.667ZM85.2475 19.04L85.6011 19.3936L85.6529 19.3417L85.6877 19.277L85.2475 19.04ZM84.9675 19.04L84.6139 19.3936L84.6391 19.4187L84.6675 19.44L84.9675 19.04ZM84.7675 18.72L84.2932 18.8781L84.2978 18.8921L84.3033 18.9057L84.7675 18.72ZM84.8075 17.76L84.4143 17.4511L84.3949 17.4758L84.3788 17.5028L84.8075 17.76ZM86.0875 16.36L85.7339 16.0064L85.7339 16.0064L86.0875 16.36ZM87.8875 14.88L87.6639 14.4328L87.6383 14.4456L87.6144 14.4612L87.8875 14.88ZM88.0875 14.96L87.7339 15.3136L87.769 15.3486L87.8102 15.376L88.0875 14.96ZM88.1675 15.12L88.503 15.4908L88.5727 15.4277L88.6147 15.3436L88.1675 15.12ZM86.5675 16.96L86.9713 17.2551L86.9764 17.2477L86.5675 16.96ZM80.9675 23.56L81.2448 23.976L81.2737 23.9568L81.2997 23.9337L80.9675 23.56ZM80.7675 23.52L80.3203 23.7436L80.3342 23.7714L80.3515 23.7974L80.7675 23.52ZM80.7275 23.24L80.4126 22.8516L80.2993 22.9435L80.2532 23.0819L80.7275 23.24ZM84.8475 20.76V20.26H84.7327L84.6294 20.3101L84.8475 20.76ZM85.1675 21.12L85.6028 21.366L85.6675 21.2515V21.12H85.1675ZM84.1275 23.12L83.677 22.9031L83.6737 22.91L83.6706 22.9169L84.1275 23.12ZM83.2475 25.28L82.7785 25.1063L82.775 25.1164L83.2475 25.28ZM82.6475 27.32L83.1326 27.4413L83.1337 27.4367L82.6475 27.32ZM83.8075 29.36L84.142 29.7317L84.1438 29.73L83.8075 29.36ZM84.8075 28.36L84.4539 28.0064L84.4479 28.0125L84.442 28.0188L84.8075 28.36ZM85.0075 28.4L84.6539 28.7536L84.689 28.7886L84.7302 28.816L85.0075 28.4ZM85.0475 28.68L85.4292 29.003L85.4816 28.941L85.5117 28.8657L85.0475 28.68ZM83.2875 30.36L82.9933 29.9555L82.9845 29.9623L83.2875 30.36ZM80.4475 28L79.9613 27.8833L79.9595 27.8906L79.958 27.898L80.4475 28ZM81.0475 26L80.5807 25.8205L80.5771 25.8306L81.0475 26ZM81.8875 24L81.4367 23.7836L81.433 23.7917L81.8875 24ZM82.8475 22.28L83.2635 22.5573L82.6081 21.8411L82.8475 22.28ZM81.8475 22.88L81.5771 22.4594L81.5699 22.464L81.5629 22.4689L81.8475 22.88ZM84.8939 18.6864C84.9265 18.6539 85.0043 18.6 85.1175 18.6C85.1668 18.6 85.2056 18.6107 85.2307 18.6208C85.2548 18.6304 85.267 18.6396 85.2675 18.64L84.6675 19.44C84.7715 19.518 84.925 19.6 85.1175 19.6C85.324 19.6 85.4885 19.5061 85.6011 19.3936L84.8939 18.6864ZM85.3211 18.6864C85.3 18.6653 85.2664 18.6211 85.2317 18.5343L84.3033 18.9057C84.3752 19.0856 84.475 19.2546 84.6139 19.3936L85.3211 18.6864ZM85.2418 18.5619C85.2046 18.4501 85.1875 18.3434 85.1875 18.24H84.1875C84.1875 18.4566 84.2238 18.6699 84.2932 18.8781L85.2418 18.5619ZM85.1875 18.24C85.1875 18.1257 85.2114 18.0586 85.2362 18.0172L84.3788 17.5028C84.2436 17.7281 84.1875 17.981 84.1875 18.24H85.1875ZM85.2007 18.0689C85.4763 17.7181 85.8872 17.2674 86.4411 16.7136L85.7339 16.0064C85.1678 16.5726 84.7254 17.0552 84.4143 17.4511L85.2007 18.0689ZM86.4411 16.7136C87.0064 16.1482 87.5798 15.6776 88.1606 15.2988L87.6144 14.4612C86.9685 14.8824 86.3419 15.3985 85.7339 16.0064L86.4411 16.7136ZM88.1111 15.3272C88.0546 15.3555 87.9921 15.37 87.93 15.37C87.8702 15.37 87.8228 15.3567 87.7918 15.3442C87.7365 15.3221 87.7173 15.2969 87.7339 15.3136L88.4411 14.6064C88.3777 14.5431 88.2851 14.4645 88.1632 14.4158C88.0268 14.3612 87.8442 14.3426 87.6639 14.4328L88.1111 15.3272ZM87.8102 15.376C87.8098 15.3758 87.7992 15.3688 87.7839 15.3536C87.7689 15.3385 87.7431 15.3091 87.7203 15.2636C87.6964 15.2158 87.6775 15.153 87.6775 15.08C87.6775 15.007 87.6964 14.9442 87.7203 14.8964L88.6147 15.3436C88.6984 15.1762 88.6984 14.9838 88.6147 14.8164C88.5455 14.6781 88.4374 14.5923 88.3649 14.544L87.8102 15.376ZM87.832 14.7492C87.2405 15.2845 86.6832 15.9268 86.1586 16.6723L86.9764 17.2477C87.4652 16.5532 87.9745 15.9689 88.503 15.4908L87.832 14.7492ZM86.1638 16.665C85.6448 17.3751 85.1924 18.0878 84.8073 18.8029L85.6877 19.277C86.0493 18.6056 86.4768 17.9315 86.9712 17.255L86.1638 16.665ZM80.6902 23.144C80.7143 23.1279 80.813 23.0712 80.9556 23.0997C81.0981 23.1282 81.1674 23.2185 81.1835 23.2426L80.3515 23.7974C80.4209 23.9015 80.5502 24.0384 80.7594 24.0803C80.9687 24.1221 81.1407 24.0454 81.2448 23.976L80.6902 23.144ZM81.2147 23.2964C81.206 23.279 81.2098 23.2808 81.2125 23.2993C81.2155 23.3203 81.2158 23.3562 81.2018 23.3981L80.2532 23.0819C80.1698 23.3321 80.2325 23.568 80.3203 23.7436L81.2147 23.2964ZM81.0424 23.6284C81.9879 22.8618 83.3238 22.0545 85.0656 21.2099L84.6294 20.3101C82.8512 21.1722 81.4405 22.0182 80.4126 22.8516L81.0424 23.6284ZM84.8475 21.26C84.8552 21.26 84.8401 21.2612 84.8119 21.2507C84.7809 21.239 84.7446 21.2168 84.7138 21.1822C84.6537 21.1145 84.6675 21.0635 84.6675 21.12H85.6675C85.6675 20.9365 85.628 20.7055 85.4612 20.5178C85.2844 20.319 85.0475 20.26 84.8475 20.26V21.26ZM84.7322 20.874C84.3795 21.498 84.0278 22.1745 83.677 22.9031L84.578 23.3369C84.9205 22.6255 85.2622 21.9687 85.6028 21.366L84.7322 20.874ZM83.6706 22.9169C83.3464 23.6464 83.0491 24.3762 82.7786 25.1063L83.7164 25.4537C83.9793 24.7438 84.2686 24.0336 84.5844 23.3231L83.6706 22.9169ZM82.775 25.1164C82.53 25.8241 82.3254 26.5198 82.1613 27.2033L83.1337 27.4367C83.2896 26.7869 83.485 26.1226 83.72 25.4436L82.775 25.1164ZM82.1624 27.1987C81.9973 27.8593 81.9075 28.4366 81.9075 28.92H82.9075C82.9075 28.55 82.9777 28.0607 83.1326 27.4413L82.1624 27.1987ZM81.9075 28.92C81.9075 29.2297 81.9589 29.5511 82.1379 29.8067C82.3396 30.0949 82.6454 30.22 82.9675 30.22V29.22C82.9336 29.22 82.928 29.2141 82.9375 29.2186C82.9419 29.2207 82.947 29.2239 82.9516 29.2279C82.9562 29.2317 82.9578 29.2343 82.9571 29.2333C82.9552 29.2306 82.9419 29.2099 82.9294 29.1564C82.9169 29.1028 82.9075 29.0258 82.9075 28.92H81.9075ZM82.9675 30.22C83.4105 30.22 83.8049 30.035 84.142 29.7316L83.473 28.9884C83.2767 29.165 83.1112 29.22 82.9675 29.22V30.22ZM84.1438 29.73C84.4503 29.4514 84.7936 29.1077 85.173 28.7012L84.442 28.0188C84.0747 28.4123 83.7514 28.7353 83.4712 28.99L84.1438 29.73ZM85.1611 28.7136C85.13 28.7446 85.0796 28.783 85.0081 28.8068C84.9344 28.8314 84.8615 28.8327 84.7994 28.8203C84.691 28.7986 84.6421 28.7417 84.6539 28.7536L85.3611 28.0464C85.2929 27.9783 85.1707 27.8747 84.9956 27.8397C84.7783 27.7962 84.5836 27.8768 84.4539 28.0064L85.1611 28.7136ZM84.7302 28.816C84.6984 28.7949 84.6627 28.7623 84.6332 28.7159C84.6035 28.6694 84.5884 28.6217 84.5825 28.5807C84.572 28.5068 84.5931 28.4698 84.5833 28.4943L85.5117 28.8657C85.5553 28.7569 85.5964 28.6065 85.5725 28.4393C85.5452 28.2486 85.4405 28.0878 85.2849 27.984L84.7302 28.816ZM84.6658 28.357C84.0988 29.0271 83.5408 29.5575 82.9934 29.9556L83.5816 30.7644C84.2075 30.3091 84.8229 29.7195 85.4292 29.003L84.6658 28.357ZM82.9845 29.9623C82.4837 30.3438 82.0409 30.5 81.6475 30.5V31.5C82.3208 31.5 82.9713 31.2295 83.5905 30.7577L82.9845 29.9623ZM81.6475 30.5C81.2508 30.5 81.0463 30.4059 80.9405 30.3062C80.8403 30.2117 80.7475 30.0352 80.7475 29.68H79.7475C79.7475 30.2048 79.8881 30.6883 80.2545 31.0338C80.6154 31.3741 81.1109 31.5 81.6475 31.5V30.5ZM80.7475 29.68C80.7475 29.244 80.8083 28.7196 80.937 28.102L79.958 27.898C79.82 28.5604 79.7475 29.156 79.7475 29.68H80.7475ZM80.9337 28.1167C81.0893 27.4684 81.2839 26.8193 81.5179 26.1694L80.5771 25.8306C80.3311 26.514 80.1257 27.1982 79.9613 27.8833L80.9337 28.1167ZM81.5142 26.1795C81.7773 25.4954 82.0533 24.8383 82.342 24.2083L81.433 23.7917C81.1351 24.4417 80.851 25.118 80.5808 25.8205L81.5142 26.1795ZM82.3383 24.2164C82.6508 23.5653 82.9595 23.0133 83.2635 22.5573L82.4315 22.0026C82.0955 22.5067 81.7642 23.1014 81.4367 23.7836L82.3383 24.2164ZM82.6081 21.8411C82.3014 22.0083 81.9575 22.2149 81.5771 22.4594L82.1179 23.3006C82.4842 23.0651 82.8069 22.8717 83.0869 22.7189L82.6081 21.8411ZM81.5629 22.4689C81.2044 22.7171 80.8942 22.9562 80.6353 23.1863L81.2997 23.9337C81.5208 23.7372 81.7972 23.5229 82.1321 23.2911L81.5629 22.4689ZM96.2481 24.36L96.4062 24.8343L96.4202 24.8297L96.4338 24.8242L96.2481 24.36ZM96.0081 24.16L95.5338 24.0019L95.5081 24.0789V24.16H96.0081ZM95.8881 22.68L95.4523 22.9251L95.458 22.9352L95.4641 22.945L95.8881 22.68ZM92.4481 23.64L92.0008 23.4163L91.9965 23.4255L92.4481 23.64ZM94.6481 29.2L94.9054 29.6288L94.9113 29.6251L94.6481 29.2ZM96.1681 27.88L95.9445 27.4328L95.8532 27.4784L95.7872 27.5562L96.1681 27.88ZM96.4481 27.92L96.8017 27.5664L96.8017 27.5664L96.4481 27.92ZM96.4881 28.2L96.8821 28.5078L96.913 28.4684L96.9353 28.4236L96.4881 28.2ZM94.2481 30.24L93.9868 29.8137L93.9868 29.8137L94.2481 30.24ZM90.1281 30.4L89.7634 30.742L89.7689 30.7479L89.7746 30.7536L90.1281 30.4ZM90.0881 25.84L89.6265 25.6477L89.6239 25.6543L90.0881 25.84ZM91.6081 23.28L91.9945 23.5974L91.9945 23.5974L91.6081 23.28ZM93.6081 21.48L93.8746 21.9033L93.8855 21.896L93.6081 21.48ZM97.1681 21.28L97.5217 20.9264L97.5217 20.9264L97.1681 21.28ZM97.5281 22.96L97.094 22.7119L97.0798 22.7368L97.0686 22.763L97.5281 22.96ZM97.1681 23.52L96.7885 23.1946L96.7741 23.2114L96.7613 23.2294L97.1681 23.52ZM96.6881 24.04L96.3627 23.6604L96.3482 23.6729L96.3346 23.6864L96.6881 24.04ZM96.09 23.8857C96.0903 23.8856 96.0972 23.8833 96.1097 23.8812C96.1222 23.8791 96.1432 23.8767 96.1709 23.8783C96.231 23.8816 96.3134 23.9035 96.3882 23.9659C96.4595 24.0253 96.489 24.0923 96.4999 24.1269C96.5101 24.1593 96.5081 24.1746 96.5081 24.16H95.5081C95.5081 24.291 95.53 24.5525 95.748 24.7341C95.9886 24.9346 96.2677 24.8805 96.4062 24.8343L96.09 23.8857ZM96.4825 24.3181C96.7072 23.6439 96.6719 22.9906 96.3121 22.415L95.4641 22.945C95.6377 23.2227 95.6824 23.5561 95.5338 24.0019L96.4825 24.3181ZM96.3239 22.4349C95.9641 21.7953 95.3012 21.54 94.5281 21.54V22.54C95.0883 22.54 95.3321 22.7114 95.4523 22.9251L96.3239 22.4349ZM94.5281 21.54C93.4121 21.54 92.5803 22.2577 92.0009 23.4164L92.8953 23.8636C93.3827 22.889 93.9375 22.54 94.5281 22.54V21.54ZM91.9965 23.4255C91.447 24.5822 91.1881 26.0497 91.1881 27.8H92.1881C92.1881 26.137 92.4359 24.8311 92.8998 23.8545L91.9965 23.4255ZM91.1881 27.8C91.1881 28.4787 91.3194 29.08 91.6653 29.5193C92.029 29.9814 92.5616 30.18 93.1681 30.18V29.18C92.788 29.18 92.5805 29.0653 92.451 28.9007C92.3035 28.7134 92.1881 28.3746 92.1881 27.8H91.1881ZM93.1681 30.18C93.7397 30.18 94.3221 29.9787 94.9054 29.6287L94.3909 28.7713C93.9075 29.0613 93.5032 29.18 93.1681 29.18V30.18ZM94.9113 29.6251C95.5183 29.2494 96.0641 28.7744 96.5491 28.2038L95.7872 27.5562C95.3654 28.0523 94.8979 28.4573 94.3849 28.7749L94.9113 29.6251ZM96.3917 28.3272C96.3782 28.334 96.3252 28.3561 96.2474 28.345C96.1669 28.3335 96.1153 28.2943 96.0946 28.2736L96.8017 27.5664C96.7009 27.4657 96.5627 27.3799 96.3888 27.355C96.2177 27.3306 96.0647 27.3727 95.9445 27.4328L96.3917 28.3272ZM96.0946 28.2736C96.0738 28.2528 96.0347 28.2013 96.0232 28.1207C96.012 28.0429 96.0342 27.9899 96.0409 27.9764L96.9353 28.4236C96.9954 28.3035 97.0375 28.1504 97.0131 27.9793C96.9883 27.8054 96.9024 27.6672 96.8017 27.5664L96.0946 28.2736ZM96.0941 27.8922C95.46 28.7039 94.7569 29.3417 93.9868 29.8137L94.5094 30.6663C95.3926 30.125 96.1829 29.4028 96.8821 28.5078L96.0941 27.8922ZM93.9868 29.8137C93.2356 30.2741 92.4455 30.5 91.6081 30.5V31.5C92.6374 31.5 93.6073 31.2192 94.5094 30.6663L93.9868 29.8137ZM91.6081 30.5C91.1486 30.5 90.7841 30.3489 90.4817 30.0464L89.7746 30.7536C90.2722 31.2511 90.8943 31.5 91.6081 31.5V30.5ZM90.4929 30.058C90.2019 29.7476 90.0281 29.2961 90.0281 28.64H89.0281C89.0281 29.4772 89.2544 30.199 89.7634 30.742L90.4929 30.058ZM90.0281 28.64C90.0281 27.775 90.2008 26.9046 90.5524 26.0257L89.6239 25.6543C89.2288 26.6421 89.0281 27.6383 89.0281 28.64H90.0281ZM90.5497 26.0323C90.9323 25.114 91.4145 24.3035 91.9945 23.5974L91.2218 22.9626C90.5751 23.7499 90.044 24.646 89.6266 25.6477L90.5497 26.0323ZM91.9945 23.5974C92.5783 22.8866 93.2056 22.3243 93.8745 21.9031L93.3417 21.0569C92.5706 21.5424 91.8646 22.18 91.2218 22.9626L91.9945 23.5974ZM93.8855 21.896C94.5438 21.4572 95.1555 21.26 95.7281 21.26V20.26C94.9141 20.26 94.1125 20.5428 93.3308 21.064L93.8855 21.896ZM95.7281 21.26C96.244 21.26 96.5839 21.4029 96.8146 21.6336L97.5217 20.9264C97.059 20.4638 96.4389 20.26 95.7281 20.26V21.26ZM96.8146 21.6336C97.0826 21.9016 97.1881 22.1659 97.1881 22.44H98.1881C98.1881 21.8607 97.947 21.3517 97.5217 20.9264L96.8146 21.6336ZM97.1881 22.44C97.1881 22.4881 97.1718 22.5758 97.094 22.7119L97.9622 23.2081C98.0978 22.9709 98.1881 22.7119 98.1881 22.44H97.1881ZM97.0686 22.763C97.0122 22.8945 96.9222 23.0386 96.7885 23.1946L97.5478 23.8454C97.7341 23.628 97.884 23.3989 97.9877 23.157L97.0686 22.763ZM96.7613 23.2294C96.653 23.3809 96.5209 23.5248 96.3627 23.6604L97.0135 24.4196C97.2287 24.2352 97.4166 24.0324 97.575 23.8106L96.7613 23.2294ZM96.3346 23.6864C96.1979 23.8231 96.1072 23.8779 96.0624 23.8958L96.4338 24.8242C96.6557 24.7355 96.8583 24.5769 97.0417 24.3936L96.3346 23.6864Z" fill="white"/>
</svg>
